<?xml version="1.0" encoding="UTF-8"?>
<svg data-bbox="0 0 542.568 246.433" viewBox="0 0 542.57 246.43" xmlns="http://www.w3.org/2000/svg" data-type="color">
    <g>
        <path d="M178.06 52.09V94.7c.02.39 0 .79-.06 1.18-.2 1.16-.27 2.34-.21 3.51-.02 1.23-.1 2.46-.25 3.68-.24 2.24-.49 4.48-.8 6.71-.15 1.14-.45 2.26-.67 3.39-.11.56-.2 1.13-.3 1.7-.04.36-.09.72-.17 1.08-.48 1.75-1 3.48-1.48 5.22v.15c-.41 1.64-.92 3.26-1.52 4.85-.22.7-.48 1.39-.78 2.06-.57 1.43-1.11 2.88-1.74 4.29-.55 1.24-1.19 2.44-1.8 3.66-.31.64-.62 1.28-1 1.9s-.69 1.16-1.05 1.74c-.12.2-.28.38-.39.58-.6 1.08-1.14 2.19-1.79 3.23s-1.59 2.2-2.22 3.41c-.33.47-.7.92-1.1 1.33a46.167 46.167 0 0 1-4.14 5.21c-.48.48-.91 1-1.4 1.48-1.44 1.41-2.38 3.26-4 4.55-1 .82-2 1.64-3 2.51-1.27 1.12-2.5 2.31-3.77 3.44-.4.33-.83.64-1.27.91-.55.38-1.13.74-1.67 1.15s-1.08.91-1.63 1.36c-.09.09-.2.17-.32.23-.91.44-1.76 1-2.53 1.67-1 .73-2.18 1.3-3.22 2-1.05.65-2.14 1.22-3.27 1.71-.53.27-1 .6-1.58.86-1.65.81-3.29 1.62-5 2.37-.8.37-1.67.61-2.5.9-.23.07-.45.15-.66.25-1.06.58-2.18 1.03-3.35 1.34-1.31.36-2.6.81-3.9 1.2-1.46.43-2.91.85-4.38 1.25-.65.18-1.32.29-2 .43l-3.46.72c-.15.05-.3.08-.46.11l-5.46.59c-.7.08-1.39.2-2.09.29-.61.13-1.23.21-1.86.25H83.28c-.67-.05-1.34-.16-2-.31-.13-.02-.26-.06-.38-.1l-5.3-.6c-.26.01-.53-.02-.78-.09-1.02-.32-2.07-.54-3.14-.65-1.9-.42-3.79-.81-5.67-1.31-1.31-.35-2.56-.9-3.87-1.27s-2.47-.85-3.72-1.2c-1.37-.45-2.7-.98-4-1.61-.44-.18-.87-.36-1.3-.56s-.54-.31-.83-.44c-1-.46-2.07-.92-3.07-1.45-.12-.06-.27-.06-.38-.12L46.16 174c-.19-.14-.39-.26-.61-.35-.6-.19-1.16-.51-1.63-.92a.928.928 0 0 0-.42-.21c-.82-.27-1.57-.73-2.18-1.34-.38-.31-.81-.56-1.27-.75-.47-.17-.9-.43-1.25-.78a6.487 6.487 0 0 0-2.1-1.49c-.33-.16-.64-.36-.91-.61-1-.84-1.9-1.71-2.86-2.57-.11-.14-.26-.26-.43-.33a6.41 6.41 0 0 1-2.66-2c-2.65-2.62-5.24-5.3-7.86-7.94a9.51 9.51 0 0 1-1.4-1.87c-.47-.66-1-1.28-1.58-1.84-.34-.4-.69-.79-1.06-1.16-.5-.55-.91-1.17-1.23-1.84-.34-.53-.71-1.03-1.12-1.5-.31-.45-.59-.92-.88-1.38-.25-.45-.54-.89-.85-1.3-.4-.48-.73-1-1-1.56-.59-1.34-1.33-2.61-2.21-3.78a3.44 3.44 0 0 1-.42-.75c-.64-1.23-1.26-2.47-1.89-3.7-.08-.14-.15-.28-.2-.43-.44-1.6-1.26-3.1-1.84-4.6-.69-1.81-1.28-3.66-1.89-5.49-.49-1.47-1-2.94-1.42-4.41-.14-.42-.26-.85-.36-1.28-.43-1.87-.85-3.73-1.26-5.6-.14-.61-.23-1.23-.32-1.85-.18-1.17-.35-2.33-.5-3.5-.34-2.12-.52-4.26-.55-6.4.07-3.85 0-7.7.06-11.56 0-.33.02-.67.07-1 .18-1.34.43-2.6.63-3.85.27-1.63.5-3.26.75-4.89 0-.29.09-.57.15-.85l1.5-6c.25-1 .57-1.9.88-2.85.58-1.71 1.14-3.43 1.77-5.12.47-1.25 1-2.46 1.56-3.69.41-1 .84-1.91 1.27-2.86.04-.12.09-.24.15-.36.85-1.3 1.37-2.77 2.15-4.1.68-1.16 1-2.52 2.11-3.46.19-.22.34-.47.46-.73.3-.51.6-1 .91-1.54.06-.09.12-.18.17-.27.58-1.3 1.4-2.47 2.41-3.47.17-.19.32-.41.44-.64.41-.88.98-1.68 1.68-2.35.68-.73 1.35-1.47 2-2.2.15-.15.28-.32.37-.51.41-.83.97-1.57 1.67-2.17C25.1 34 27 32.09 29 30.15c.32-.25.65-.47 1-.67.69-.52 1.41-1 2-1.57 1-.92 2-1.9 3.06-2.83.3-.25.64-.44 1-.57.5-.17.95-.46 1.3-.85.51-.65 1.21-1.13 2-1.38.36-.15.69-.38.94-.68a5.5 5.5 0 0 1 2-1.32c.36-.18.69-.39 1-.64.53-.34 1-.68 1.58-1s.78-.44 1.16-.65c.07 0 .13-.11.19-.14l3-1.48 2.77-1.3c1.42-.78 2.93-1.4 4.49-1.85.84-.27 1.65-.6 2.44-1 .63-.25 1.28-.45 1.92-.66.15-.05.34 0 .46-.11 1.05-.53 2.18-.89 3.35-1.06 1.59-.42 3.21-.75 4.79-1.19s3.53-.54 5.22-1.06c1.48-.32 2.99-.5 4.5-.55.44 0 .89-.06 1.32-.15 1.1-.25 2.24-.33 3.36-.21.4 0 .79-.07 1.15-.23.77-.26 1.58-.38 2.4-.37h88.86c.94-.08 1.77.62 1.85 1.56v.02c.01.1.01.21 0 .31V52.1h-.05Zm-11.19 4.56V20c.02-.26.02-.53 0-.79a1.37 1.37 0 0 0-1.19-1.21 7.37 7.37 0 0 0-.94 0H89.52c-1 0-1.94.17-2.9.1-1.13-.05-2.25 0-3.37.15-1.2.13-2.39.33-3.59.38-1.6.06-3.19.29-4.74.69-.7.18-1.44.23-2.16.37s-1.38.29-2.06.46l-2.12.54c-.53.06-1.06.16-1.58.31-.61.3-1.27.5-1.94.61-.24.03-.47.09-.69.17-1.44.55-2.88 1.09-4.32 1.66-.73.28-1.45.58-2.17.9s-1.5.73-2.24 1.1c-1.72.84-3.44 1.67-5.14 2.53-.69.35-1.36.73-2 1.16-1.26.87-2.5 1.71-3.7 2.55-.8.54-1.62 1.06-2.39 1.65-1.17.89-2.35 1.77-3.43 2.75-2.24 2-4.47 4-6.61 6.16-1.41 1.46-2.75 3-4 4.6-1.28 1.59-2.4 3.3-3.63 4.93A73.325 73.325 0 0 0 20.17 59c-.6 1.07-1.13 2.17-1.59 3.31A65.456 65.456 0 0 0 15.74 69c-.48 1.52-1.09 3-1.63 4.49-.08.25-.14.5-.18.76-.47 2-.93 4-1.4 6-.14.58-.32 1.16-.41 1.76-.17 1.24-.21 2.51-.46 3.73-.38 1.9-.57 3.84-.56 5.78 0 3.46 0 6.92.06 10.38.06 1.12.17 2.24.35 3.35.11.86.24 1.72.37 2.57.22 1.37.45 2.74.69 4.1.11.62.26 1.23.4 1.84s.29 1.44.51 2.13c.33 1.48.78 2.94 1.34 4.35v.07c.47 1.41.88 2.85 1.44 4.23.79 1.94 1.68 3.84 2.54 5.74.3.64.68 1.24 1 1.88.84 1.68 1.77 3.32 2.78 4.91.26.42.48.87.76 1.28 1.1 1.56 2.17 3.15 3.34 4.66 1.31 1.7 2.63 3.41 4.09 5 2.17 2.3 4.47 4.49 6.73 6.72.6.58 1.24 1.13 1.9 1.64l3.94 3c.88.65 1.81 1.25 2.72 1.86.83.63 1.7 1.2 2.62 1.7 1.48.69 2.69 1.84 4.25 2.36.1 0 .18.11.28.15 1 .53 2 1 3.06 1.57.1.01.21.04.3.09 1.25.53 2.49 1.09 3.75 1.59s2.75 1 4.12 1.49c.15.04.31.06.46.08.16.02.31.07.46.13 1.08.53 2.25.86 3.45 1 .38.07.74.26 1.12.37.57.15 1.16.3 1.75.41.65.07 1.29.18 1.93.32 2.48.77 5.08.74 7.6 1.19 1.82.26 3.65.37 5.49.33 2.73 0 5.45-.06 8.18-.13.7-.04 1.41-.12 2.1-.24l2.8-.38c.86-.11 1.72-.19 2.57-.34 1.08-.2 2.16-.42 3.22-.69 2-.49 4-1 6-1.52h.07l3.56-1.24c1.33-.47 2.68-.91 4-1.44s2.48-1.13 3.7-1.72c.88-.42 1.74-.85 2.59-1.32s1.91-1.07 2.86-1.63c.61-.35 1.2-.73 1.79-1.11.25-.19.52-.36.79-.52 1.58-.86 3.08-1.87 4.48-3 2-1.42 3.79-3.05 5.65-4.62 2.11-1.84 4.1-3.83 5.93-5.95.94-1.05 1.79-2.19 2.68-3.29.33-.4.7-.77 1-1.18 1.33-1.68 2.56-3.44 3.68-5.27.88-1.46 1.85-2.86 2.66-4.36 1.43-2.5 2.67-5.1 3.71-7.79.27-.76.67-1.48.95-2.24.55-1.47 1.12-2.94 1.56-4.44.56-1.9 1-3.84 1.5-5.77.21-.81.35-1.64.5-2.46.07-.36.09-.73.18-1.09.44-1.78.73-3.59.87-5.42.07-.76.09-1.52.18-2.27.34-2.32.43-4.66.27-7-.03-.39-.03-.79 0-1.18 0-.73.1-1.46.1-2.19l.04-35.55Z" fill="#ffffff" data-color="1"/>
        <path d="M92.47 139.2H47.41c-.88-.03-1.76-.2-2.58-.52a4.592 4.592 0 0 1-2.39-2.1 7.918 7.918 0 0 1-1.21-4.31V87.61c.01-1.1.12-2.19.31-3.27.14-.53.35-1.04.63-1.51a.38.38 0 0 0 .09-.13 4.571 4.571 0 0 1 3-2.59c.55-.23 1.14-.37 1.74-.4h90.84a5.68 5.68 0 0 1 5.16 3.6c.39 1.01.59 2.07.6 3.15v11c.04.69-.1 1.38-.41 2-.08.14-.15.28-.18.44a5.153 5.153 0 0 1-2 2.82c-.29.25-.63.43-1 .52-.99.22-1.99.35-3 .39H74.06c-.84 0-1.68-.08-2.51-.11h-1.73l-2.67.1c-.31 0-.63.03-.94.07a2.751 2.751 0 0 0-2.41 2.72c-.13 1.96-.15 3.92-.06 5.88.09.68.32 1.33.67 1.91.19.34.49.61.85.75.65.23 1.32.38 2 .45 1 .11 2 .1 3.06.15h.79c3.51 0 7-.14 10.53-.14h55.44c.87-.01 1.73.08 2.57.29 1.36.37 2.47 1.35 3 2.66.26.57.47 1.17.65 1.77.13.4.19.82.2 1.24 0 3.9.08 7.81 0 11.71a6.194 6.194 0 0 1-3 5.41c-.72.45-1.54.68-2.39.69H92.47v.02Z" fill="#ffffff" data-color="1"/>
        <path d="M92.44 68.9H48.72A7.35 7.35 0 0 1 43 66.49a5.01 5.01 0 0 1-1.54-3.26c0-1.39-.19-2.77-.21-4.16-.04-2.28-.04-4.56 0-6.84 0-1.28.17-2.56.29-3.84.14-.81.51-1.55 1.06-2.16a6.988 6.988 0 0 1 4.4-2.91c.41-.07.83-.1 1.25-.09h88.63c1.68-.05 3.31.59 4.5 1.79a7.608 7.608 0 0 1 2.23 5.34c0 3.9.06 7.81 0 11.71.09 2.14-.91 4.19-2.66 5.43-1.24.9-2.72 1.39-4.25 1.41H92.44Zm-31-14.13c-.03-.78-.16-1.55-.38-2.3a5.866 5.866 0 0 0-2.57-3.16c-.83-.44-1.74-.71-2.68-.79a6.45 6.45 0 0 0-5.17 1.83c-.2.2-.36.44-.49.69-.17.27-.29.57-.48.82-.44.6-.65 1.33-.6 2.07.02.37.02.73 0 1.1-.08 1.14.23 2.27.9 3.2.55.93 1.37 1.67 2.35 2.13 1.71.72 3.62.8 5.38.21a4.997 4.997 0 0 0 3-2.66c.49-.97.74-2.05.73-3.14h.01Z" fill="#ffffff" data-color="1"/>
        <path d="M471.84 58V2.07c-.03-.32-.03-.63 0-.95 0-.61.49-1.11 1.1-1.12h.22l10.9.07h11.15c1 .05 1.19.23 1.24 1.2v39.67c0 .56-.05 1.12-.09 1.68s0 .9.48 1.13c.44.23.98.14 1.33-.21.12-.1.23-.21.34-.33 1.42-1.4 2.84-2.8 4.25-4.21.78-.61 1.6-1.16 2.46-1.65.99-.74 2.07-1.35 3.22-1.82 2.21-.93 4.55-1.48 6.94-1.65.12.02.24.02.36 0 2.19-.58 4.34 0 6.48.31 1.71.2 3.37.7 4.9 1.48 1 .55 2.08 1 3.1 1.49.42.23.81.51 1.15.85 1.42 1.4 2.89 2.76 4.2 4.27.79.95 1.46 2 2 3.11.86 1.62 1.63 3.29 2.3 5 .48 1.3.86 2.64 1.13 4 .41 1.82.82 3.66 1.07 5.52.16 1.47.23 2.94.21 4.42.06 10.5.11 21 .14 31.51v18.33c0 1.61-.26 1.89-1.86 1.89h-21.21c-.89 0-1.22-.31-1.3-1.2V68.37c.01-3.2-.65-6.37-1.95-9.3a9.661 9.661 0 0 0-4.1-4.47c-1.16-.52-2.42-.8-3.7-.81-1.01 0-2.01.08-3 .26-.2 0-.39.13-.59.14a7.862 7.862 0 0 0-4.71 2.34 10.73 10.73 0 0 0-3 5.24c-.5 2.09-.7 4.25-.6 6.4v46.25c0 1.37-.22 1.63-1.58 1.63h-21.66c-.89 0-1.24-.3-1.35-1.16V58h.03Z" fill="#ffffff" data-color="1"/>
        <path d="M196.24 60.36v-54c.06-1.07.38-1.39 1.48-1.45h57.74c.86 0 1.15.31 1.17 1.17s0 1.92 0 2.87v15.2c0 .93-.29 1.2-1.24 1.2h-32.83c-1.42 0-1.69.25-1.69 1.66v20.11c0 1.25.39 1.63 1.66 1.63h30.55c1.34 0 1.62.31 1.63 1.63v16.89c-.08 1-.45 1.35-1.44 1.36h-28.4c-.64.01-1.28-.01-1.91-.07-1.81-.07-2.13.24-2.12 2v23.35c0 1.44.25 1.7 1.78 1.7h34.62c1.22 0 1.68.42 1.67 1.64v16.16c.04.48.04.96 0 1.44.03.69-.5 1.28-1.19 1.31h-58.43c-.56.04-1.11.04-1.67 0-.69.06-1.31-.44-1.38-1.13V60.36Z" fill="#ffffff" data-color="1"/>
        <path d="M337.4 86v13.8c0 2.08 0 4.15.06 6.23-.02.28.01.55.09.82.38 1.35.53 2.75.45 4.15.06 1.2.18 2.39.37 3.57.16 1.16-.06 1.48-1.21 1.48h-18.9c-1 0-1.39-.23-1.61-1.23-.33-1.52-.6-3-.86-4.58-.1-.62-.24-1.19-.91-1.42-.59-.17-1.23.03-1.62.51-.79.9-1.64 1.74-2.56 2.51-2.42 1.74-4.83 3.54-7.83 4.23-1.63.38-3.24.85-4.87 1.24-.47.1-.94.16-1.42.16h-3c-4.01.02-7.96-.97-11.48-2.88-3.25-1.63-5.48-4.32-7.82-6.93-.76-1.74-2.29-3.08-2.58-5.08-.19-.57-.42-1.12-.7-1.65-.68-1.9-1.02-3.91-1-5.93.04-.23.04-.48 0-.71-.76-2.17.06-4.25.27-6.37a26.41 26.41 0 0 1 3-8.79c.17-.31.38-.61.61-.88.27-.29.52-.6.73-.94 1-2.1 2.8-3.47 4.33-5.07.46-.48 1.18-.68 1.69-1.12 2.34-2.07 5.18-3.28 8-4.61 1.23-.57 2.52-1.01 3.84-1.32 3.1-.88 6.26-1.55 9.46-2 2.06-.2 4.11-.54 6.17-.76.88-.05 1.75-.05 2.63 0 .4 0 .8-.02 1.19-.08.62-.08 1.07-.64 1-1.27V61c-.15-3.43-1.26-6.4-4.26-8.39-.34-.21-.7-.38-1.08-.51-2.78-1.03-5.73-1.5-8.69-1.36-2.47.03-4.94.29-7.37.75-1.72.33-3.41.8-5.06 1.41-1.8.64-3.53 1.46-5.29 2.22-1.18.51-1.58.37-1.92-.87-.9-3.23-1.75-6.47-2.64-9.7-.22-.81-.54-1.59-.74-2.4-.34-1.42 0-1.93 1.3-2.51s2.82-1.31 4.26-1.89c1.32-.57 2.68-1.04 4.06-1.42 2.32-.58 4.68-1 7-1.51 3.06-.55 6.15-.88 9.25-1 1.96-.31 3.95-.31 5.91 0 1.57.35 3.25.25 4.86.48 3.29.46 6.47 1.5 9.4 3.06 1.06.56 2.14 1.07 3.17 1.66.49.28.94.61 1.34 1 1.09 1 2.17 2.11 3.22 3.21.96.91 1.76 1.98 2.36 3.16.41.89 1.12 1.64 1.53 2.53.75 1.49 1.37 3.05 1.86 4.65.8 3 1.74 6 1.78 9.13.1 7.78.26 15.56.4 23.34l-.17-.04Zm-23.63-2h-.16v-4.65c0-1.4-.38-1.83-1.76-1.8s-2.87.17-4.29.33c-3.4.3-6.67 1.41-9.56 3.22a9.58 9.58 0 0 0-3.92 5.12c-.54 1.95-.67 3.99-.4 6 .33 4.81 3.6 7.69 8.15 7.94 2.75.18 5.45-.7 7.57-2.46a9.416 9.416 0 0 0 3.73-6.34c.26-2.39.43-4.87.63-7.33V84Z" fill="#ffffff" data-color="1"/>
        <path d="M417.81 74.28V54.87c0-1.69-.45-2.09-2.17-2.1h-5.87c-.36.03-.71.03-1.07 0-.62-.01-1.11-.52-1.1-1.14v-15c.06-1 .36-1.3 1.31-1.35s1.84 0 2.76 0h4.43c1.28 0 1.67-.39 1.67-1.65V22.29c0-1.51.27-2 1.7-2.44 3.88-1.11 7.76-2.18 11.64-3.28 2.95-.84 5.9-1.71 8.85-2.58 1.72-.51 2.05-.28 2.05 1.55v18.33c0 1.19.32 1.47 1.52 1.47h13.66c1 .06 1.36.37 1.4 1.38v1.2c0 4.47.02 8.94.05 13.42 0 1.07-.29 1.42-1.41 1.46s-2 0-3 0h-10.78c-1 0-1.28.29-1.39 1.25-.02.33-.02.67 0 1v31.5c-.1 1.71.18 3.42.83 5 .14.37.25.76.33 1.15.05.31.15.62.3.9 1.27 1.79 2.68 3.37 5.08 3.61 1.23.29 2.5.42 3.77.37.83-.12 1.66-.16 2.49-.25.24 0 .48-.08.72-.1 1.66-.14 2 .17 2 1.83 0 4.75.03 9.5.09 14.25 0 2.25 0 2.35-2.17 3-.54.14-1.09.23-1.64.29l-5.67.82h-.24c-3.38 0-6.78.35-10.15-.27-2.2-.38-4.35-.98-6.43-1.79a18.437 18.437 0 0 1-6.75-4.61 16.894 16.894 0 0 1-2.89-3.93 33.084 33.084 0 0 1-2.72-7c-.74-3.11-1.11-6.29-1.1-9.49v-16l-.1-.05Z" fill="#ffffff" data-color="1"/>
        <path d="M457.65 174.09H440c-1.57 0-1.87-.29-1.87-1.9v-24c0-2.08 0-4.15-.05-6.23-.02-.75.27-1.47.8-2 1.13-1.13 2.26-2.26 3.36-3.42s2.19-2.43 3.29-3.64c.32-.35.65-.68 1-1 .57-.58 1.35-.88 2.16-.84h33.39c1.76-.02 3.51.2 5.21.65 1.79.44 3.43 1.36 4.74 2.65 2.17 2.29 4.08 4.81 5.7 7.52.82 1.22 1.6 2.48 2.4 3.72 2.71 4.18 5.45 8.35 8.11 12.57.63 1 1.39.83 1.86-.06.65-1.19 1.35-2.34 2.12-3.46 2.25-3.39 4.54-6.75 6.78-10.14 2.54-3.83 5-7.67 7.58-11.5.27-.4.56-.77.88-1.13.47-.56 1.17-.87 1.9-.83h11.97c.39.15.9.2 1.14.48s0 .81-.28 1.18c-2.24 3.25-4.47 6.51-6.69 9.77-2 2.97-4 5.95-6 8.93-1.55 2.33-3 4.69-4.59 7-2.79 4.18-5.6 8.35-8.41 12.52a8.62 8.62 0 0 1-3.54 3.15 8.575 8.575 0 0 1-6.24.76 9.915 9.915 0 0 1-5.44-4c-1.52-2.2-2.94-4.46-4.4-6.7l-5.76-8.82c-1.77-2.71-3.55-5.4-5.29-8.12-.81-1.25-1.85-2.33-3.06-3.18a6.398 6.398 0 0 0-3.8-1.24h-26.19c-.28-.02-.56-.02-.84 0-.63.04-1.13.54-1.17 1.17-.12.88.08 1.77.55 2.52.3.49.85.77 1.42.72 4-.05 8-.09 12-.1h16.17c.16-.03.32-.03.48 0 .35.13.87.22 1 .47.06.38-.05.76-.29 1.05-1.29 1.73-2.63 3.42-3.94 5.13-.56.73-1.13 1.45-1.64 2.21-.44.68-1.19 1.1-2 1.11h-1.32L453 157c-1.42 0-1.78.36-1.77 1.76 0 .88 0 1.76.06 2.63-.05.71.49 1.31 1.19 1.36.09 0 .18 0 .27-.01h27.78c.8 0 1.59 0 2.39-.07.33-.03.67-.03 1 0 .84.13 1.07.68.57 1.36l-2.28 3.07c-1.43 1.92-2.88 3.82-4.28 5.77a2.73 2.73 0 0 1-2.44 1.21h-17.84Z" fill="#ffffff" data-color="1"/>
        <path d="M355.75 80.42V62.21c0-5.23.08-10.46-.19-15.68-.15-3-.16-6-.26-9-.03-.33-.03-.67 0-1 .07-.88.4-1.22 1.25-1.32h18.21c.62-.04 1.17.39 1.29 1 .21.85.36 1.72.44 2.59.17 2.82.29 5.65.41 8.48 0 .6.14 1.14.82 1.3.53.13 1-.2 1.34-1 .58-1.22 1.12-2.47 1.77-3.66.46-.83 1.02-1.62 1.65-2.33 1-1.1 2-2.14 3.09-3.17.89-.78 1.84-1.49 2.85-2.12 2.62-1.85 5.66-2.29 8.63-3 .31-.06.64-.06.95 0 1 .13 2 .29 3 .46.8.14 1.11.55 1.13 1.56V54.8c0 .44.06.88.06 1.32 0 .92-.39 1.27-1.34 1.22-2-.1-4.06-.32-6.08-.22-2.98-.03-5.88.99-8.18 2.88-.14.14-.3.26-.48.35-1.52.76-2.7 2.07-3.31 3.65a19.322 19.322 0 0 0-2.42 9v40.12c.03.52.03 1.04 0 1.56.08.67-.39 1.28-1.06 1.36h-22.07c-1.35 0-1.58-.27-1.55-1.63v-34h.05Z" fill="#ffffff" data-color="1"/>
        <path d="M390.28 154.3v11.62c0 3.23 0 6.47-.26 9.69-.2 1.46-.53 2.89-1 4.28-.1.38-.33.73-.4 1.12a7.592 7.592 0 0 1-1.62 3.29c-.67.87-1 2-2 2.68-1.74 1.22-3.33 2.7-5.48 3.24-1.7.42-3.38.94-5.08 1.37-.55.11-1.1.17-1.66.18-2.95.1-5.9-.18-8.78-.83-1.25-.24-2.51-.48-3.75-.77s-1.46-.68-1.49-1.84 0-2.47 0-3.71c0-1 .45-1.37 1.45-1.11.58.15 1.12.43 1.7.58 2.2.56 4.38 1.26 6.61 1.61 3.08.53 6.25.27 9.21-.76 3.56-1.26 5.28-4 5.81-7.52.32-2.17.38-4.37.52-6.55a1.142 1.142 0 0 0-1.78-1.12c-.99.51-1.93 1.1-2.82 1.77-1.28.95-2.73 1.63-4.28 2-2.3.47-4.67.56-7 .28-1.31-.16-2.58-.53-3.77-1.09-2.36-1.1-4.41-2.78-5.93-4.9-.56-.77-1.03-1.61-1.4-2.49a28.77 28.77 0 0 1-2.4-9.82c-.13-1.7-.13-3.4 0-5.1.22-3.27 1.01-6.47 2.33-9.47 1.48-3.07 3.68-5.73 6.41-7.76.95-.72 2-1.31 3.12-1.74 1.88-.89 3.92-1.36 6-1.39 2.69-.02 5.34.59 7.74 1.8.65.32 1.31.6 2 .82.64.32 1.42.1 1.79-.52a1.99 1.99 0 0 1 2.15-.92c.76.04 1.52.04 2.28 0 1.49 0 1.82.35 1.82 1.84v21.24h-.04Zm-6.49-3.1v-10.78c.16-1.11-.51-2.17-1.58-2.51-1.16-.42-2.32-.87-3.51-1.17-2.54-.75-5.22-.88-7.82-.4-2.96.6-5.54 2.41-7.11 5-1.03 1.8-1.7 3.79-2 5.84-.75 4.14-.62 8.39.37 12.48.27 1.54.84 3.01 1.69 4.32.89 1.33 2.12 2.4 3.56 3.09 1.48.62 3.08.87 4.68.74 1.15.03 2.31-.05 3.44-.26 2.41-.57 4.7-1.58 6.73-3a3.286 3.286 0 0 0 1.57-3c-.06-3.41 0-6.88 0-10.35h-.02Z" fill="#ffffff" data-color="1"/>
        <path d="M305.37 153.31h-13.89c-1.11.09-1.49.52-1.44 1.62.11 2.44.57 4.84 1.36 7.15a16.1 16.1 0 0 0 1.66 2.87c.13.16.26.31.4.45 2.11 2.49 5.05 4.12 8.27 4.6 3.45.71 6.72 0 10-.8 1.78-.57 3.5-1.32 5.13-2.25.37-.23.7-.5 1-.82.38-.32.78-.61 1.29-.38s.5.68.5 1.13v3.35c.07 1.2-.7 2.29-1.86 2.62-2.23.73-4.41 1.66-6.68 2.26-3.05.87-6.25 1.04-9.37.5-.51-.1-1-.13-1.54-.19-2.42-.3-4.75-1.09-6.86-2.32-1.1-.64-2.14-1.37-3.12-2.18a13.588 13.588 0 0 1-3.54-4.46c-.96-1.75-1.72-3.6-2.27-5.52-.71-2.87-1.01-5.82-.88-8.77.05-3.07.6-6.11 1.64-9 .62-1.73 1.49-3.36 2.59-4.83.74-1.12 1.56-2.19 2.46-3.2 1.25-1.18 2.69-2.14 4.26-2.84 1.37-.64 2.79-1.17 4.25-1.56 1.95-.55 3.98-.74 6-.54 1.75.14 3.47.52 5.12 1.13 1.55.53 2.98 1.36 4.21 2.44 2.04 1.68 3.65 3.82 4.7 6.25.44 1.2.77 2.43 1 3.68.59 2.48.87 5.03.82 7.58v.72c-.09 1-.49 1.34-1.47 1.35h-13.76l.02-.04Zm-3.37-4.79h10c1.54 0 1.91-.36 1.89-1.91.01-2.09-.48-4.14-1.43-6a8.418 8.418 0 0 0-2.89-3.45 11.042 11.042 0 0 0-5.44-1.66c-3.52-.15-6.93.4-9.65 3-.49.46-.94.96-1.35 1.49-.89 1.17-1.61 2.47-2.12 3.85-.42 1.12-.63 2.3-.62 3.49 0 .84.21 1.08 1 1.15.48.04.95.06 1.43.05H302Z" fill="#ffffff" data-color="1"/>
        <path d="M218 153.31h-13.4c-1.09.06-1.55.46-1.58 1.53-.08 1.08-.06 2.16.07 3.23.4 3.57 2.12 6.86 4.82 9.23 1.35 1.07 2.92 1.84 4.59 2.25 2.03.62 4.15.87 6.27.75 3.08-.17 6.08-.98 8.83-2.38l2.71-1.5c.24-.15.5-.26.77-.34.67-.19 1 0 1.08.69.07 1.56.07 3.11 0 4.67-.04.57-.44 1.06-1 1.2-3.64 1.46-7.28 2.9-11.23 3.2-1.19.09-2.4.09-3.59 0-2.71-.16-5.38-.72-7.92-1.67a18.312 18.312 0 0 1-6.84-4.89 16.994 16.994 0 0 1-3.11-4.36c-.7-1.78-1.27-3.61-1.7-5.47-.79-2.86-.46-5.79-.54-8.69-.03-.24-.03-.47 0-.71.2-1.54.5-3.07.88-4.57.54-1.62 1.17-3.21 1.9-4.76 1.08-2.52 3-4.34 5-6.23 1.52-1.35 3.27-2.42 5.17-3.15.86-.33 1.74-.57 2.65-.72 3.14-.84 6.46-.7 9.53.38.96.26 1.9.59 2.81 1 1.78 1 3.67 2 4.84 3.8 1.12 1.69 2.05 3.5 2.78 5.39 1.25 3.42 1.2 7 1.24 10.51 0 1.33-.42 1.7-1.74 1.7H218v-.09Zm-3-4.79h10.42c1.11 0 1.39-.32 1.33-1.35-.07-2.03-.48-4.04-1.21-5.94a8.11 8.11 0 0 0-4.4-4.63c-1.15-.43-2.34-.74-3.56-.93-2.29-.44-4.66-.18-6.81.73-4.56 1.83-6.9 5.43-7.61 10.19-.04.28-.04.55 0 .83.03.59.49 1.06 1.08 1.09.28.02.56.02.84 0H215Z" fill="#ffffff" data-color="1"/>
        <path d="M241.51 153.12v-20.36c.09-1.09.5-1.49 1.58-1.51h3.83c.63-.08 1.2.37 1.28 1v.14c.04.6.04 1.19 0 1.79 0 .54 0 1.07.58 1.34.49.22 1.07.1 1.44-.29.41-.32.82-.63 1.21-1a16.3 16.3 0 0 1 9.51-4.11c3.18-.37 6.37.63 8.77 2.75 1.92 1.52 3.35 3.57 4.12 5.89.58 1.67.96 3.4 1.12 5.16.68 4.86.25 9.73.34 14.58s0 9.66 0 14.49c0 1.58-.47 2-2 1.94h-2.51c-1.8.08-2.25-.33-2.25-2.08V150c.08-2.68-.09-5.36-.52-8a7.102 7.102 0 0 0-2.6-4.44c-.21-.18-.46-.32-.73-.4-1.6-.48-3.25-.77-4.92-.87-2.94.06-5.78 1.05-8.11 2.84-.3.26-.64.47-1 .64a3.78 3.78 0 0 0-2.41 3.86c.06 9.54 0 19.08 0 28.62.03.48.03.96 0 1.44 0 .68-.56 1.24-1.24 1.24h-3.93c-.76.08-1.45-.47-1.53-1.23v-20.58h-.03Z" fill="#ffffff" data-color="1"/>
        <path d="M400.76 131.27h2.16c.75-.1 1.45.4 1.6 1.14 1.49 4.17 3 8.35 4.46 12.51.65 1.79 1.38 3.56 2 5.35.45 1.2.84 2.41 1.28 3.61.88 2.39 1.78 4.78 2.65 7.17.19.52.3 1.08.45 1.61s.4.89 1 .9c.46 0 .86-.32.94-.77l1.94-5.4c.42-1.16.84-2.32 1.28-3.47.75-2 1.56-3.92 2.27-5.91 1-2.85 2-5.73 3-8.59.56-1.57 1.22-3.11 1.79-4.68.25-.67.35-1.39.62-2.06.57-1.43 1.05-1.5 2.14-1.42s2.16 0 3.23 0c1.24.05 1.51.45 1.09 1.6s-.94 2.37-1.41 3.55l-.1.21c-.76 2-1.53 4-2.3 6-.37 1-.76 1.93-1.14 2.89l-1.8 4.64c-1.23 3.11-2.45 6.21-3.68 9.32-1.26 3.23-2.55 6.45-3.78 9.69-.56 1.45-1 3-1.5 4.41-.23.64-.58 1.23-.82 1.86-1 2.49-1.9 5-2.86 7.47-.24.63-.54 1.24-.79 1.88-.68 1.73-1.36 3.47-2 5.22-.17.68-.78 1.16-1.48 1.17-1.48 0-3 .07-4.43 0-.77 0-1.08-.59-.76-1.36.21-.51.53-1 .75-1.49 1.24-2.85 2.47-5.7 3.68-8.56.27-.62.45-1.28.71-1.9.48-1.14 1-2.26 1.49-3.39.44-1.26.35-2.64-.26-3.83-.56-1.45-1.14-2.89-1.7-4.34-.69-1.78-1.39-3.56-2-5.35s-1.23-3.53-1.88-5.29c-.25-.71-.62-1.38-.89-2.08-1.15-2.97-2.28-5.95-3.41-8.93-.8-2.12-1.56-4.27-2.36-6.39-.62-1.64-1.27-3.27-1.94-4.89-.8-1.93-.65-2.18 1.46-2.14h1.32l-.02.04Z" fill="#ffffff" data-color="1"/>
        <path d="M329 153.11v-19.64c0-2 .32-2.28 2.32-2.19h2.39c1.32 0 1.7.45 1.66 1.76 0 1-.05 2-.08 3 0 .53 0 1.07.54 1.36.54.21 1.15.06 1.53-.37.28-.23.55-.47.8-.73a19.34 19.34 0 0 1 8.87-4.7c.89-.21 1.81-.29 2.73-.26 1.23.06 1.75.72 1.75 2v3.24c0 1.37-.51 1.88-1.83 1.7-2.51-.26-5.05 0-7.45.77-1.32.34-2.55.96-3.6 1.83-.54.43-1.12.8-1.73 1.12-.98.51-1.6 1.52-1.59 2.63V173c0 1.7-.25 1.92-1.95 1.92h-2.52c-1.44 0-1.85-.36-1.85-1.83v-19.98Z" fill="#ffffff" data-color="1"/>
        <path d="M82.16 227.62v5h-1.68v-12.8h4.72c1.19-.07 2.37.31 3.29 1.07.8.72 1.23 1.76 1.19 2.84.07 1.08-.36 2.14-1.17 2.87-.95.73-2.14 1.08-3.33 1l-3.02.02Zm0-1.38h3c.75.05 1.48-.18 2.07-.64.5-.48.77-1.16.72-1.85.03-.68-.23-1.35-.72-1.83-.55-.49-1.27-.74-2-.71h-3.07v5.03Z" fill="#ffffff" data-color="1"/>
        <path d="M91 227.78c-.02-.87.17-1.73.55-2.51a4.057 4.057 0 0 1 3.77-2.33c1.2-.04 2.35.45 3.14 1.35.84 1 1.27 2.27 1.2 3.57v.14c.01.86-.17 1.71-.53 2.49-.33.71-.86 1.31-1.52 1.72-.69.42-1.48.63-2.28.61-1.19.04-2.34-.45-3.13-1.34a5.14 5.14 0 0 1-1.2-3.58v-.12Zm1.64.2c-.05.9.21 1.8.73 2.54a2.474 2.474 0 0 0 3.93 0c.53-.8.79-1.76.73-2.72.05-.9-.21-1.79-.74-2.53a2.47 2.47 0 0 0-3.92 0c-.53.81-.77 1.77-.7 2.73l-.03-.02Z" fill="#ffffff" data-color="1"/>
        <path d="m110.15 230.39 1.83-7.27h1.62l-2.77 9.51h-1.31l-2.32-7.21-2.2 7.21h-1.31l-2.76-9.51h1.61l1.87 7.12 2.22-7.12h1.31l2.21 7.27Z" fill="#ffffff" data-color="1"/>
        <path d="M119.2 232.8c-1.18.05-2.33-.42-3.15-1.27a4.744 4.744 0 0 1-1.21-3.39v-.3c-.02-.87.17-1.74.54-2.53.33-.71.86-1.31 1.51-1.74.63-.41 1.36-.63 2.11-.63 1.1-.06 2.16.39 2.88 1.22a5.274 5.274 0 0 1 1 3.5v.68h-6.44c-.02.83.27 1.64.82 2.27.5.57 1.24.89 2 .87.51.02 1.02-.11 1.46-.36.39-.24.73-.56 1-.93l1 .78a4 4 0 0 1-3.52 1.83Zm-.2-8.52c-.63-.01-1.23.25-1.65.71-.48.56-.77 1.26-.83 2h4.76v-.12c0-.7-.23-1.37-.66-1.92-.41-.46-1.01-.71-1.62-.67Z" fill="#ffffff" data-color="1"/>
        <path d="M129.39 224.58c-.26-.04-.53-.07-.8-.07a2.13 2.13 0 0 0-2.17 1.37v6.75h-1.63v-9.51h1.58v1.1c.46-.81 1.33-1.31 2.27-1.28.25-.01.49.03.72.12l.03 1.52Z" fill="#ffffff" data-color="1"/>
        <path d="M134.66 232.8c-1.18.05-2.33-.42-3.15-1.27a4.744 4.744 0 0 1-1.21-3.39v-.3c-.02-.87.17-1.74.54-2.53.33-.71.86-1.31 1.51-1.74.63-.41 1.36-.63 2.11-.63 1.1-.06 2.16.39 2.88 1.22a5.274 5.274 0 0 1 1 3.5v.68h-6.44c-.02.83.27 1.64.82 2.27.5.57 1.24.89 2 .87.51.02 1.02-.11 1.46-.36.39-.24.73-.56 1-.93l1 .78a4 4 0 0 1-3.52 1.83Zm-.2-8.52c-.63-.01-1.23.25-1.65.71-.48.56-.77 1.26-.83 2h4.76v-.12c0-.7-.23-1.37-.66-1.92-.41-.46-1.01-.71-1.62-.67Z" fill="#ffffff" data-color="1"/>
        <path d="M139.86 227.79c-.07-1.25.28-2.49 1-3.52a3.52 3.52 0 0 1 4.96-.56c.14.11.28.24.4.37v-5h1.63v13.5h-1.49l-.08-1c-.67.8-1.68 1.24-2.72 1.19-1.06.02-2.07-.49-2.69-1.35a5.608 5.608 0 0 1-1-3.53v-.1Zm1.61.19c-.05.89.18 1.78.67 2.53.42.6 1.11.94 1.84.91.97.04 1.86-.51 2.26-1.39v-4.36a2.37 2.37 0 0 0-2.24-1.35c-.74-.03-1.44.32-1.86.92-.51.83-.74 1.79-.67 2.76v-.02Z" fill="#ffffff" data-color="1"/>
        <path d="M162.91 228c.06 1.24-.29 2.47-1 3.5a3.2 3.2 0 0 1-2.69 1.32c-1.08.06-2.12-.42-2.79-1.27l-.08 1.1h-1.49v-13.5h1.62v5c.66-.81 1.67-1.26 2.72-1.22 1.07-.04 2.08.45 2.72 1.31a5.799 5.799 0 0 1 1 3.59v.17Zm-1.64-.19c.06-.9-.17-1.79-.64-2.56-.41-.6-1.11-.95-1.84-.91-1.01-.04-1.94.56-2.32 1.5v4.11c.4.93 1.32 1.52 2.33 1.49.72.03 1.41-.31 1.82-.9.5-.83.72-1.79.65-2.75v.02Z" fill="#ffffff" data-color="1"/>
        <path d="m168 230.25 2.22-7.13h1.74l-3.83 11c-.59 1.59-1.53 2.38-2.82 2.38H165l-.6-.11V235h.44c.45.03.9-.09 1.28-.33.38-.32.64-.74.77-1.22l.36-1-3.4-9.4h1.78l2.37 7.2Z" fill="#ffffff" data-color="1"/>
        <path d="M210.52 211.09h4.62v24.68c.16 2.92-.93 5.76-3 7.82a11.242 11.242 0 0 1-8 2.83c-3.46 0-6.16-.89-8.09-2.66-2-1.94-3.05-4.66-2.89-7.44h4.59c-.33 3.18 1.98 6.02 5.15 6.34.41.04.83.04 1.24 0a6.16 6.16 0 0 0 4.61-1.8 6.948 6.948 0 0 0 1.78-5v-24.77Z" fill="#ffffff" data-color="1"/>
        <path d="M222.3 213.18c-.02-.67.21-1.32.65-1.82a2.46 2.46 0 0 1 2-.74c.74-.06 1.48.21 2 .74.45.5.69 1.15.67 1.82.07 1.32-.95 2.45-2.27 2.52h-.37c-.74.07-1.47-.2-2-.72-.45-.49-.69-1.13-.68-1.79Zm4.78 32.76h-4.42V220h4.42v25.94Z" fill="#ffffff" data-color="1"/>
        <path d="m238.35 220 .15 3.26a9.412 9.412 0 0 1 7.75-3.73c5.47 0 8.23 3.09 8.28 9.26v17.11h-4.43v-17.1c.11-1.49-.35-2.97-1.28-4.14a5.124 5.124 0 0 0-3.91-1.34c-1.35-.02-2.67.38-3.78 1.15-1.09.77-1.96 1.8-2.54 3v18.45h-4.42V220h4.18Z" fill="#ffffff" data-color="1"/>
        <path d="M260.13 232.77c0-4 .94-7.19 2.82-9.58 3.31-4.15 9.37-4.83 13.52-1.52.39.31.75.64 1.08 1.01v-13.5H282v36.76h-4.07l-.21-2.78a9.005 9.005 0 0 1-7.4 3.26 8.83 8.83 0 0 1-7.33-3.69c-2-2.8-3-6.19-2.84-9.62l-.02-.34Zm4.43.51c-.14 2.43.5 4.85 1.82 6.89a5.865 5.865 0 0 0 5 2.49 6.45 6.45 0 0 0 6.15-3.78V227a6.508 6.508 0 0 0-6.1-3.66c-2.01-.08-3.92.87-5.07 2.52-1.2 1.65-1.8 4.14-1.8 7.42Z" fill="#ffffff" data-color="1"/>
        <path d="M304.83 245.94c-.34-.87-.55-1.79-.62-2.73a9.877 9.877 0 0 1-7.37 3.21c-2.29.09-4.53-.69-6.28-2.17a7.01 7.01 0 0 1-2.46-5.49 7.288 7.288 0 0 1 3.08-6.28c2.05-1.5 4.93-2.24 8.65-2.24h4.31v-2c.07-1.37-.43-2.71-1.39-3.69a5.57 5.57 0 0 0-4.09-1.38c-1.43-.06-2.84.37-4 1.2-.98.64-1.59 1.72-1.61 2.89h-4.45c.03-1.37.51-2.68 1.38-3.74a9.287 9.287 0 0 1 3.73-2.86c1.63-.71 3.4-1.07 5.18-1.05 2.53-.15 5.02.65 7 2.23a8.098 8.098 0 0 1 2.64 6.16v11.92c-.08 1.93.23 3.86.9 5.67v.39l-4.6-.04Zm-7.34-3.38c1.38 0 2.74-.37 3.94-1.07a6.538 6.538 0 0 0 2.71-2.8v-5.32h-3.47c-5.43 0-8.15 1.59-8.14 4.77a4 4 0 0 0 1.39 3.25c1.01.81 2.28 1.22 3.57 1.17Z" fill="#ffffff" data-color="1"/>
        <path d="M320.32 245.94h-4.43v-36.76h4.43v36.76Z" fill="#ffffff" data-color="1"/>
        <path d="m346.16 211.09 11.39 28.43 11.39-28.43h6v34.85h-4.59v-13.57l.43-14.65-11.48 28.22h-3.52l-11.41-28.15.45 14.58v13.57h-4.59v-34.85h5.93Z" fill="#ffffff" data-color="1"/>
        <path d="M381.15 232.75c-.04-2.36.47-4.71 1.49-6.84.91-1.93 2.36-3.56 4.17-4.69 1.83-1.12 3.94-1.69 6.09-1.65 3.25-.12 6.39 1.23 8.55 3.66 2.18 2.44 3.27 5.69 3.27 9.74v.31c.04 2.34-.46 4.66-1.45 6.78-.9 1.92-2.34 3.55-4.14 4.68a11.445 11.445 0 0 1-6.19 1.68c-3.25.11-6.38-1.24-8.53-3.67-2.17-2.44-3.26-5.67-3.26-9.69v-.31Zm4.45.53c-.13 2.46.58 4.9 2 6.91 2.28 2.95 6.53 3.5 9.48 1.22.46-.35.87-.76 1.22-1.22 1.33-1.77 2-4.23 2-7.41.12-2.46-.58-4.89-2-6.9a6.392 6.392 0 0 0-5.37-2.65c-2.08-.05-4.06.92-5.29 2.61-1.36 1.72-2.04 4.2-2.04 7.44Z" fill="#ffffff" data-color="1"/>
        <path d="M432.19 233.28c0 3.95-.91 7.12-2.73 9.53a8.727 8.727 0 0 1-7.32 3.61 8.991 8.991 0 0 1-7.59-3.47l-.21 3h-4.07v-36.77h4.43v13.71a8.983 8.983 0 0 1 7.39-3.32 8.768 8.768 0 0 1 7.41 3.56c1.79 2.38 2.69 5.63 2.69 9.76v.39Zm-4.43-.51c.15-2.46-.46-4.9-1.74-7a5.763 5.763 0 0 0-5-2.47 6.491 6.491 0 0 0-6.29 4.07v11.2a6.678 6.678 0 0 0 6.34 4.07c1.96.08 3.83-.85 4.95-2.47 1.16-1.63 1.74-4.09 1.74-7.4Z" fill="#ffffff" data-color="1"/>
        <path d="M437.79 213.18c-.02-.67.22-1.32.66-1.82.51-.52 1.22-.8 1.95-.74.74-.07 1.48.21 2 .74.45.5.69 1.15.67 1.82.02.66-.22 1.3-.67 1.79-.53.52-1.26.78-2 .72-.72.05-1.43-.21-1.95-.72-.44-.49-.68-1.13-.66-1.79Zm4.79 32.76h-4.43V220h4.43v25.94Z" fill="#ffffff" data-color="1"/>
        <path d="M454.47 245.94H450v-36.76h4.43l.04 36.76Z" fill="#ffffff" data-color="1"/>
        <path d="M461.58 213.18c-.02-.67.21-1.32.65-1.82.51-.52 1.22-.8 1.95-.74.74-.06 1.48.21 2 .74.45.5.69 1.15.67 1.82.07 1.32-.95 2.45-2.27 2.52h-.37c-.72.05-1.43-.21-1.95-.72-.45-.49-.69-1.13-.68-1.79Zm4.78 32.76h-4.42V220h4.42v25.94Z" fill="#ffffff" data-color="1"/>
        <path d="M479.45 213.77V220h4.84v3.43h-4.84v16.07c-.06.83.17 1.66.65 2.34.58.58 1.39.87 2.2.78.71-.03 1.42-.13 2.11-.29v3.57c-1.11.31-2.25.47-3.4.48-1.69.12-3.34-.54-4.48-1.8a7.77 7.77 0 0 1-1.5-5.1v-16.01h-4.72V220H475v-6.27l4.45.04Z" fill="#ffffff" data-color="1"/>
        <path d="M502 224c-.72-.12-1.45-.18-2.18-.17a5.83 5.83 0 0 0-5.91 3.71v18.38h-4.42V220h4.3l.07 3a6.894 6.894 0 0 1 6.18-3.47c.68-.04 1.37.07 2 .33L502 224Z" fill="#ffffff" data-color="1"/>
        <path d="M506.06 213.18c-.02-.67.22-1.32.66-1.82a2.99 2.99 0 0 1 3.91 0c.45.5.69 1.15.67 1.82a2.736 2.736 0 0 1-4.58 1.79c-.44-.49-.68-1.13-.66-1.79Zm4.79 32.76h-4.43V220h4.43v25.94Z" fill="#ffffff" data-color="1"/>
        <path d="M528.32 242.8c1.51.02 2.97-.48 4.14-1.43a5.091 5.091 0 0 0 2-3.59h4.19c-.09 1.53-.63 3-1.53 4.23-.97 1.37-2.27 2.47-3.77 3.21-1.55.79-3.26 1.21-5 1.2-3.19.14-6.28-1.15-8.41-3.53-2.09-2.36-3.13-5.58-3.13-9.66v-.74c-.04-2.32.44-4.62 1.39-6.73.86-1.88 2.25-3.47 4-4.57 1.85-1.11 3.97-1.67 6.13-1.62 2.66-.09 5.25.84 7.24 2.6a9.329 9.329 0 0 1 3.08 6.78h-4.19a6.118 6.118 0 0 0-1.9-4.13 5.926 5.926 0 0 0-4.23-1.62c-2.03-.1-3.99.81-5.22 2.43-1.24 1.62-1.86 3.95-1.86 7v.83c0 3 .62 5.28 1.84 6.89a6.217 6.217 0 0 0 5.23 2.45Z" fill="#ffffff" data-color="1"/>
    </g>
</svg>
