<?xml version="1.0" encoding="UTF-8"?>
<svg data-bbox="0.003 0.002 317.704 317.68" viewBox="0 0 317.7 317.68" xmlns="http://www.w3.org/2000/svg" data-type="ugc">
    <g>
        <g>
            <path d="M316.17.58c-2.86-.14-6.58-.48-10.3-.48-49.55 0-99.09-.22-148.63 0C57.21.61-18.15 95.47 3.84 193 21 268.86 89.43 320.76 168.22 317.54c72.37-3 140.58-62.61 146.92-136.57 5.08-59.18 1.03-119.15 1.03-180.39z" fill="none"/>
            <path d="M316.17.58c0 61.24 4.05 121.21-1 180.39-6.34 74-74.55 133.62-146.92 136.57C89.43 320.76 21 268.86 3.84 193-18.15 95.47 57.21.61 157.24.12c49.54-.24 99.08 0 148.63 0 3.72-.02 7.44.32 10.3.46zm-17.93 17.27c-29.36 0-57.09-.3-84.82.1-18.91.27-37.8 1.49-56.71 2.31-36.59 1.59-69.28 10.58-95.6 39.38C30.24 93.42 16.4 132 21.68 176.71c8.11 68.79 68.71 121.84 137.66 120.49 73.95-1.46 129.34-50.43 137.82-124.42 5.69-49.65 1.08-100.47 1.08-154.93z" fill="#ffffff"/>
            <path d="M117 173.25c-3.66 2.78-3.58 5.22-3.51 9.5.1 6.1-.21 6.29 2.44 8.76 3.93 3.65 13.64 2.29 16.13 2.3 36.4 0 72.81.37 109.2-.21 12.27-.19 17.14 4.65 16.55 16.38-.22 4.22.14 8.47-.09 12.69-.51 9-5.17 14-14.44 14H88.36c-8.84 0-13.19-3.91-13.13-13.07q.25-40 0-80c-.06-9.82 4.68-13.42 14.08-13.39 51.21.15 102.43.23 153.65-.06 10.35-.06 14.81 4.37 14.81 14.26 0 4.24-.07 8.47 0 12.7.25 11.65-5 16.46-17 16.32-41.03-.43-82.05-.18-123.77-.18z" fill="#ffffff"/>
            <path d="M257.13 85.13c-.05-17.4-3.57-21.07-20.49-21.08H94.4c-14.67 0-18.52 3.53-19.7 18.09-.28 3.36-.07 6.77 0 10.15.07 15.4 1.57 17 16.54 17q37.47.07 74.93 0c26.43 0 52.25-.2 77.47.12 9.31.11 13.08-4.39 13.49-12.88.14-3.77.02-7.59 0-11.4zm-160 10.29a8.69 8.69 0 1 1 8.69-8.69 8.69 8.69 0 0 1-8.7 8.69z" fill="#ffffff"/>
        </g>
    </g>
</svg>
